<?xml version="1.0" encoding="UTF-8"?>
<svg id="Layer_2" data-name="Layer 2" xmlns="http://www.w3.org/2000/svg" viewBox="0 0 1000 1000">
  <defs>
    <style>
      .cls-1 {
        fill: #fff;
      }

      .cls-2 {
        fill: #222;
      }
    </style>
  </defs>
  <g id="Layer_1-2" data-name="Layer 1">
    <g>
      <rect class="cls-2" width="1000" height="1000"/>
      <g>
        <g>
          <path class="cls-1" d="m718.96,240.26c.04.27.09.53.14.8,141.77,16.02,197.81,118.59,113.54,239.14-63.08,90.46-158.05,152.9-256.72,198.95-99.78,42.89-208.89,74.22-318.35,61.78-150.31-16.46-203.06-119.97-114.28-246.08-.29-.18-.54-.38-.81-.58-60.26,64.15-116.02,176.26-45.43,252.38,73.94,73.76,190.96,70.88,287.39,56.31,147.58-23.95,288.53-88.27,405.23-181.58,66.27-57.21,136.21-129.31,145.46-220.33,12.38-117.78-119.01-164.16-216.16-160.78Zm207.78,154.64c-.2.02-.4.02-.6.02v-10.63c.2,0,.4,0,.6-.02v10.63Z"/>
          <path class="cls-1" d="m926.74,384.27v10.63c-.19.01-.4.01-.59.01v-10.63c.19,0,.4,0,.59-.01Z"/>
        </g>
        <path class="cls-1" d="m421.05,374.55c4.58,9.7,3.93,16.78-1.7,26-3.6,7.15-1.39,12.22.09,19.1-1.05.8-1.48-.24-2.03-1-3.62-4.73-1.88-12.91-10.05-12.62,9.49-4.98,15.75-15.12,12.02-25.84-3.08-8.42-20.01,6.7-24.8-5.97,14.79,8.64,29.6-7.08,25.62-22.02,6.26,5.79.63,15.08.85,22.34Z"/>
        <path class="cls-1" d="m504.73,414.24c-8.29,5.69-18.27,1.5-25.66-3.87-4.78-1.83-9.72.89-14.56,1.19-8.47.76-2.28,9.42-.13,13.62-11.19-3.2-2.01-26-25.95-12.44-6.01,1.19,5.21-4.74,3.28-8.24-.22-1.94-1.67-3.68-1.67-5.7,9.8,7.5,17.47,11.52,30.25,8.22,7.41-.56,6.19-8.98,10.03-13.25-1.5,9.85-.04,20.19,12.93,20.44,3.78.42,7.82-1.09,11.46.04Z"/>
        <path class="cls-1" d="m545.22,382.44c.04.56.2,1.14.09,1.67-4.15,9.29.89,30.85-9.05,34.96,10.95-20.55-.69-30.87-17.4-13.09-9.9,5.79,5.34-5.74-2.26-7.42-10.77-6.5,14.54,6.66,28.63-16.11Z"/>
        <path class="cls-1" d="m300.41,345.92c-2.77,44.3-38.69,74.92-59.02,111.26-11.44,20.01,20.91,26.04,22.72,39.43-6.23,9.61,2.41,18.49,2.55,27.5-8.85,12.22,9.16,25.11,6.88,35.92-17.38,20.39-2.9,54.03,18.43,66.19,16.48,10.08,34.85,3.64,52.65,8.35,18.4,4.91,37.12,23.66,37.13,42.6-21.17,7.1-42.35,12.19-64.8,13.43,102.46,12.37,208.27-17.22,302.6-57.79,5.02-.89,4.16-4.78,4.06-8.53-.24-22.07,9.09-42.98,19.68-62.01,31.94-44.07,44.74-100.72,45.97-152.65,16.06-246.46-349.37-312.83-388.86-63.71Zm269.27,26.38c-1.92,6.95-10.27,8.62-13.71,12.67,19.66-3.75-9.4,31.07-12.26,37.17-7.6,11.68-12.98,24.66-16.4,38.15-2.82,10.25-1.7,25.95-15.41,27.7-25.75,5.16-52.89,5.61-78.36-1.18-11.01-3.44-9.87-16.86-12.73-25.93-3.17-15.55-11.79-29.2-19.28-42.98-3.26-7.89-13.78-17.8-12.26-26.2,2.48-5.2,7.71-3.28,11.62-1.05-.42-5.03-5.52-5.54-9.4-6.25-26.09-5.56-13.76-40.39,10.61-23.7,1.39-8.89-.76-19.23,7.19-25.85,5.58-4.78,14.72-4.85,20.06-1.43,7.71,5.03,4.33,15.57,5.02,23.32-.96,10.54,6.83,18.14,16.97,19.1,5.69,2.52,3.71,13.8,12.26,15.19-7.95-17.64-7.93-11.44,4.94-25.31,5.61-4.87,3.15-17.07,9.4-18.32,8.58.65,14.18-6.88,21.85-6.84,7.39,1.32,17.24-.07,20.82-7.51-4.8,1.76-8.15,5.03-13.49,5.25-15.08.14-16.02-17.58-5.65-25.44-17.2,3.75-1.79,28.14-14.9,30.4-12.76,1.43-8.4,2.17-15.05-6.57,2.01,12.17.34,28.44-12.8,33.98-7.8,3.73-18.43.81-20.8-8.27-3.02-10.65,2.52-24.41-8.93-31.12-.92-.78-.89-1.07.02-1.5,10.41-3.77,10.74-15.19,18.7-19.55,2.7,5.54-2.3,11.37-.65,17.4,1.7,8.17,4.47,16.08,6.43,24.06,4.87-10.79-9.74-22.34-3.1-33.55,3.4-6.77,12.82-4.53,17.44-9.07-11.73,2.23-21.46,1.5-28.97-9.25,6.9,20.6-14.32,39.92-32.25,23.94.62,3.04,3.68,4.16,5.87,6.63-9.41,5.25-13.78,13.63-13.62,25-17.74.18-29.02-2.1-24.14-23.16,3.6,8.67,20.59,15.23,7.48,5.02-9.31-9.54-5.7-26.22,7.88-29.3.4,4.4-2.39,11.53-.09,14.25.74-13.02,8.17-23.92,22.36-22.9,6.92.63.53,10.01,5.25,12.91.27-6.07-.92-13.63,4.71-18.18,4.98-3.51,13.04-9.16,14.83.36-.38-22.51,19.16-13.6,27.18-23.43-4.2,1.09-8.46,1.96-12.71,2.86-4.38,1.01-13.33-5.79-7.79-9.83,25.78-22.76,59.88.38,23.32,23.01,8.89.24,16.13-8.38,17.89-16.8,1.56-4.06-1.5-8.62.71-11.93,8.44-5.18,18.67,6.99,12.67,14.68-4.87,6.95-12.75,14.47-7.88,23.48,3.22,7.66-1.18,13.85-4.33,20.39,3.48.2,5.65-5.5,6.28-8.73,1.25-9.34,10.94-10.47,18.74-11.64,4.64-.72,8,4.31,8.31,7.93,2.32,4.27-9.31,17.2-1.63,11.04,17.35-12.71,28.1,17.2,11.9,26.6-5.43,3.86-11.5,7.59-18.52,5.74-25.02.04-19.01,18.85-30.94,27.36-2.72,1.76-6.79,1.23-9.14,3.24,5.45,1.9,13.76-4.25,17.6,2.26,4.71,6.97,15.57,7.91,9.83,18.09,2.52-.76,3.31-3.86,4.71-5.85,2.06-4.96,10.23-3.6,11.37-8.49-23.92,12.08-35.6-19.37-14.94-31.56,5.61-3.44,15.28-5.56,19.55.96.54,1.01,1.23.89,1.92.18,3.6-4.15,7.66-7.71,12.06-10.97,14.39-13.22,6.95-27.58-8.75-34.8-2.19-1.45-2.73-3.93-3.4-6.21-5.63-19.21-26.54,4.35-29.46-11.35-.2-8.78,9.6-12.33,11.33-20.44-.14-12.82,18.02-9.74,20.62.54,1.56,4.2.85,8.33.29,12.57-2.39,9.74,7.88,19.59,16.89,13.2-6.17-.31-13.87-1.32-14.16-8.96.89-4.94-2.61-17.78,5.94-15.79,7.1,2.08,5.36,12.02,12.46,13.04,16.02,2.68,17.94,29.57-1.18,28.24,8.56,7.75,14.77-8.13,18.43-4.94,5.25,2.93,8.02,11.79,5.4,17.65-2.35-.33-4.8-1.58-7.22-.96,8.04,5.07,11.28,9.76,10.34,19.66-.13,2.63-1.5,3.75-3.91,2.9-6.32-2.35-12.78-4.42-18.12-8.49,1.85,21.42-12.35,31.58-31.9,33.26,15.82,7.95,32.97-22.32,29.04,7.64.42-.34,1.07-.6,1.25-1.03,2.05-5.92,6.36-9.23,11.12-12.98-3.68-.54-11.32,4.78-11.03-2.01,2.06-4.65,1.36-16.73,7.08-17.53,13.91-1.76,20.48,15.03,15.32,26.13Zm-75.65,127.65c-15.93,3.37-31.99,1.88-47.85.33.22.31.38.78.67.85,20.24,6.95,42.66,4.33,62.81-1.65,1.25-.49,2.5-1.5,3.58.34,4.15,8.4-16.86,10.28-22.16,11.59-14.65,2.59-29.19-1.09-43.76-1.12,3.91,3.6,13.02,3.78,18.79,5.07,10.52,1.86,21.13-.29,31.63-1.77,5-.25,10.36-4.82,15.05-3.53,5.88,8.75-21.75,10.07-26.92,12.19-12.53.54-25.4-.63-37.8-.02,19.79,9.29,43.18,2.17,63.39-2.05,5.52,8.38-11.75,7.71-16.39,10.32-15.17,4.78-31.25,2.01-46.42,1.27,19.68,8.75,43.11,5.38,63.28-1.03-12.26,16.02-50.04,13.22-67.57,7.33-5.67-2.01-8.04-4.02-8.06-10.79.14-5.49-1.23-11.08-.87-16.55,1.47-3.33-.92-6.19-1.32-9.18,2.9-4.04-.47-7.59-1.25-11.75,16.91,3.6,33.59,5.4,50.79,4.56,10.32.09,21.13-3.8,31.12-3.31,1.7,5.85-16.51,7.31-20.73,8.91Zm-46.44,41.61c15.66,5.2,32.68,6.36,48.7,2.12-10.56,6.86-38.67,5.81-48.7-2.12Zm-21.98-263.46c-1.7-3.87-11.7,1.77-15.77,1.76,7.53-19.43,40.56-15.14,29.44-1.1-2.35,2.88-5.54,4.89-8.75,6.84-6.26,3.49-11.23,10.05-18.96,10.14-7.1-2.35-21.18,14.12-23.3,4,4.6-14.68,25.11-15.72,37.33-21.64Z"/>
        <g>
          <path class="cls-1" d="m579.11,337.41c-.24-.16-.63-.29-.71-.53-4.29-11.19-1.61-25-10.86-33.98-6.52-6.74-5.56-18.61-15.19-22.36-4.09-1.12-6.28-5.07-9.02-8.04-7.24-6.3-16.3-10.54-24.75-14.97-11.46-3.87-23.47-6.68-35.6-7.1-8.76-1.43-17.45-2.81-26.24-.58-8.89.8-16.06,6.23-24.04,9.43-4.76.69-9.92.54-14.41,2.37-13.31,5.69-21.33,18.5-32.66,27.07-5.3,4.25-4.87,10.74-6.97,16.46-2.08,3.13-5.32,5.81-6.84,9.23-2.5,5.29-1.79,11.13-3.19,16.73-1.68,5.49-2.19,11.04-1.03,16.69.42,5.78,5.96,10.34,3.39,16.33-3.33,9.7,3.58,17.76,8.62,25.31,7.51,20.57,22.61,37.17,30.82,57.58,4.18,11.33,6.97,23.1,9.07,34.96.72,7.15,9.96,8.47,8.65,16.33.27,8.69,1.52,17.36,1.5,26.18-.24,8.67,3.82,15.59,11.66,19.41,6.28,4.62,11.99,9.52,17.53,14.97,9.11,5.65,22.99,5.72,31.61-.74,6.93-9.29,19.68-11.9,25.35-22.49,4.8-13.13,2.97-27.9,4.73-41.68,1.61-4.27,7.3-6.05,8.08-11.08,3.77-29.91,17.64-55.95,34.87-80.28,5-10.21,10.03-20.8,14.05-31.36.62-6.99.65-14.05.8-21.06,1.48-.69.53-11.57.8-12.82Zm-153.5-59.31c-1.7-3.87-11.7,1.77-15.77,1.76,7.53-19.43,40.56-15.14,29.44-1.1-2.35,2.88-5.54,4.89-8.75,6.84-6.26,3.49-11.23,10.05-18.96,10.14-7.1-2.35-21.18,14.12-23.3,4,4.6-14.68,25.11-15.72,37.33-21.64Zm56.89,276.69c-1.29.76-2.77,1.32-4.33,1.67-.16.04-.34.07-.51.09-2.44.51-5.07.47-7.55-.04-.04,0-.09-.02-.13-.02-.02,0-.05-.02-.07-.02-1.76-.36-3.4-.98-4.85-1.81h17.56c-.04.05-.07.09-.13.13Zm-34.91-13.24c15.66,5.2,32.68,6.36,48.7,2.12-10.56,6.86-38.67,5.81-48.7-2.12Zm46.44-41.61c-15.93,3.37-31.99,1.88-47.85.33.22.31.38.78.67.85,20.24,6.95,42.66,4.33,62.81-1.65,1.25-.49,2.5-1.5,3.58.34,4.15,8.4-16.86,10.28-22.16,11.59-14.65,2.59-29.19-1.09-43.76-1.12,3.91,3.6,13.02,3.78,18.79,5.07,10.52,1.86,21.13-.29,31.63-1.77,5-.25,10.36-4.82,15.05-3.53,5.88,8.75-21.75,10.07-26.92,12.19-12.53.54-25.4-.63-37.8-.02,19.79,9.29,43.18,2.17,63.39-2.05,5.52,8.38-11.75,7.71-16.39,10.32-15.17,4.78-31.25,2.01-46.42,1.27,19.68,8.75,43.11,5.38,63.28-1.03-12.26,16.02-50.04,13.22-67.57,7.33-5.67-2.01-8.04-4.02-8.06-10.79.14-5.49-1.23-11.08-.87-16.55,1.47-3.33-.92-6.19-1.32-9.18,2.9-4.04-.47-7.59-1.25-11.75,16.91,3.6,33.59,5.4,50.79,4.56,10.32.09,21.13-3.8,31.12-3.31,1.7,5.85-16.51,7.31-20.73,8.91Zm75.65-127.65c-1.92,6.95-10.27,8.62-13.71,12.67,19.66-3.75-9.4,31.07-12.26,37.17-7.6,11.68-12.98,24.66-16.4,38.15-2.82,10.25-1.7,25.95-15.41,27.7-25.75,5.16-52.89,5.61-78.36-1.18-11.01-3.44-9.87-16.86-12.73-25.93-3.17-15.55-11.79-29.2-19.28-42.98-3.26-7.89-13.78-17.8-12.26-26.2,2.48-5.2,7.71-3.28,11.62-1.05-.42-5.03-5.52-5.54-9.4-6.25-26.09-5.56-13.76-40.39,10.61-23.7,1.39-8.89-.76-19.23,7.19-25.85,5.58-4.78,14.72-4.85,20.06-1.43,7.71,5.03,4.33,15.57,5.02,23.32-.96,10.54,6.83,18.14,16.97,19.1,5.69,2.52,3.71,13.8,12.26,15.19-7.95-17.64-7.93-11.44,4.94-25.31,5.61-4.87,3.15-17.07,9.4-18.32,8.58.65,14.18-6.88,21.85-6.84,7.39,1.32,17.24-.07,20.82-7.51-4.8,1.76-8.15,5.03-13.49,5.25-15.08.14-16.02-17.58-5.65-25.44-17.2,3.75-1.79,28.14-14.9,30.4-12.76,1.43-8.4,2.17-15.05-6.57,2.01,12.17.34,28.44-12.8,33.98-7.8,3.73-18.43.81-20.8-8.27-3.02-10.65,2.52-24.41-8.93-31.12-.92-.78-.89-1.07.02-1.5,10.41-3.77,10.74-15.19,18.7-19.55,2.7,5.54-2.3,11.37-.65,17.4,1.7,8.17,4.47,16.08,6.43,24.06,4.87-10.79-9.74-22.34-3.1-33.55,3.4-6.77,12.82-4.53,17.44-9.07-11.73,2.23-21.46,1.5-28.97-9.25,6.9,20.6-14.32,39.92-32.25,23.94.62,3.04,3.68,4.16,5.87,6.63-9.41,5.25-13.78,13.63-13.62,25-17.74.18-29.02-2.1-24.14-23.16,3.6,8.67,20.59,15.23,7.48,5.02-9.31-9.54-5.7-26.22,7.88-29.3.4,4.4-2.39,11.53-.09,14.25.74-13.02,8.17-23.92,22.36-22.9,6.92.63.53,10.01,5.25,12.91.27-6.07-.92-13.63,4.71-18.18,4.98-3.51,13.04-9.16,14.83.36-.38-22.51,19.16-13.6,27.18-23.43-4.2,1.09-8.46,1.96-12.71,2.86-4.38,1.01-13.33-5.79-7.79-9.83,25.78-22.76,59.88.38,23.32,23.01,8.89.24,16.13-8.38,17.89-16.8,1.56-4.06-1.5-8.62.71-11.93,8.44-5.18,18.67,6.99,12.67,14.68-4.87,6.95-12.75,14.47-7.88,23.48,3.22,7.66-1.18,13.85-4.33,20.39,3.48.2,5.65-5.5,6.28-8.73,1.25-9.34,10.94-10.47,18.74-11.64,4.64-.72,8,4.31,8.31,7.93,2.32,4.27-9.31,17.2-1.63,11.04,17.35-12.71,28.1,17.2,11.9,26.6-5.43,3.86-11.5,7.59-18.52,5.74-25.02.04-19.01,18.85-30.94,27.36-2.72,1.76-6.79,1.23-9.14,3.24,5.45,1.9,13.76-4.25,17.6,2.26,4.71,6.97,15.57,7.91,9.83,18.09,2.52-.76,3.31-3.86,4.71-5.85,2.06-4.96,10.23-3.6,11.37-8.49-23.92,12.08-35.6-19.37-14.94-31.56,5.61-3.44,15.28-5.56,19.55.96.54,1.01,1.23.89,1.92.18,3.6-4.15,7.66-7.71,12.06-10.97,14.39-13.22,6.95-27.58-8.75-34.8-2.19-1.45-2.73-3.93-3.4-6.21-5.63-19.21-26.54,4.35-29.46-11.35-.2-8.78,9.6-12.33,11.33-20.44-.14-12.82,18.02-9.74,20.62.54,1.56,4.2.85,8.33.29,12.57-2.39,9.74,7.88,19.59,16.89,13.2-6.17-.31-13.87-1.32-14.16-8.96.89-4.94-2.61-17.78,5.94-15.79,7.1,2.08,5.36,12.02,12.46,13.04,16.02,2.68,17.94,29.57-1.18,28.24,8.56,7.75,14.77-8.13,18.43-4.94,5.25,2.93,8.02,11.79,5.4,17.65-2.35-.33-4.8-1.58-7.22-.96,8.04,5.07,11.28,9.76,10.34,19.66-.13,2.63-1.5,3.75-3.91,2.9-6.32-2.35-12.78-4.42-18.12-8.49,1.85,21.42-12.35,31.58-31.9,33.26,15.82,7.95,32.97-22.32,29.04,7.64.42-.34,1.07-.6,1.25-1.03,2.05-5.92,6.36-9.23,11.12-12.98-3.68-.54-11.32,4.78-11.03-2.01,2.06-4.65,1.36-16.73,7.08-17.53,13.91-1.76,20.48,15.03,15.32,26.13Z"/>
          <path class="cls-1" d="m466.94,555.71c.33.13.69.24,1.06.35-.37-.1-.72-.22-1.06-.35Z"/>
          <path class="cls-1" d="m469.03,556.31c.35.07.72.14,1.09.2-.37-.06-.74-.12-1.09-.2Z"/>
          <path class="cls-1" d="m476.73,556.66c-1.72.18-3.6.18-5.37,0,1.77.17,3.65.17,5.37,0Z"/>
          <path class="cls-1" d="m476.77,556.66c.61-.06,1.19-.15,1.75-.25-.56.1-1.14.19-1.75.25Z"/>
          <path class="cls-1" d="m481.08,555.68c.23-.1.43-.2.63-.3-.19.11-.4.21-.63.3Z"/>
          <path class="cls-1" d="m419.44,419.65c-1.05.8-1.48-.24-2.03-1-3.62-4.73-1.88-12.91-10.05-12.62,9.49-4.98,15.75-15.12,12.02-25.84-3.08-8.42-20.01,6.7-24.8-5.97,14.79,8.64,29.6-7.08,25.62-22.02,6.26,5.79.63,15.08.85,22.34,4.58,9.7,3.93,16.78-1.7,26-3.6,7.15-1.39,12.22.09,19.1Z"/>
          <path class="cls-1" d="m504.73,414.24c-8.29,5.69-18.27,1.5-25.66-3.87-4.78-1.83-9.72.89-14.56,1.19-8.47.76-2.28,9.42-.13,13.62-11.19-3.2-2.01-26-25.95-12.44-6.01,1.19,5.21-4.74,3.28-8.24-.22-1.94-1.67-3.68-1.67-5.7,9.8,7.5,17.47,11.52,30.25,8.22,7.41-.56,6.19-8.98,10.03-13.25-1.5,9.85-.04,20.19,12.93,20.44,3.78.42,7.82-1.09,11.46.04Z"/>
          <path class="cls-1" d="m545.31,384.11c-4.15,9.29.89,30.85-9.05,34.96,10.95-20.55-.69-30.87-17.4-13.09-9.9,5.79,5.34-5.74-2.26-7.42-10.77-6.5,14.54,6.66,28.63-16.11.04.56.2,1.14.09,1.67Z"/>
        </g>
      </g>
    </g>
  </g>
</svg>