<?xml version="1.0" encoding="UTF-8"?>
<svg id="Layer_2" data-name="Layer 2" xmlns="http://www.w3.org/2000/svg" viewBox="0 0 908.05 343.78">
  <defs>
    <style>
      .cls-1 {
        fill: #fff;
      }
    </style>
  </defs>
  <g id="Layer_1-2" data-name="Layer 1">
    <g>
      <g>
        <path class="cls-1" d="m361.71,28.43c.02.15.05.29.08.44,78.3,8.85,109.25,65.5,62.71,132.08-34.84,49.96-87.29,84.45-141.79,109.88-55.11,23.69-115.37,40.99-175.83,34.12-83.02-9.09-112.15-66.26-63.12-135.91-.16-.1-.3-.21-.45-.32-33.28,35.43-64.08,97.35-25.09,139.39,40.84,40.74,105.47,39.15,158.73,31.1,81.51-13.23,159.36-48.75,223.81-100.29,36.6-31.6,75.23-71.42,80.34-121.69,6.84-65.05-65.73-90.67-119.39-88.8Zm114.76,85.41c-.11.01-.22.01-.33.01v-5.87c.11,0,.22,0,.33-.01v5.87Z"/>
        <path class="cls-1" d="m476.47,107.97v5.87c-.11,0-.22,0-.33,0v-5.87c.11,0,.22,0,.33,0Z"/>
      </g>
      <path class="cls-1" d="m197.17,102.6c2.53,5.36,2.17,9.27-.94,14.36-1.99,3.95-.77,6.75.05,10.55-.58.44-.82-.13-1.12-.55-2-2.61-1.04-7.13-5.55-6.97,5.24-2.75,8.7-8.35,6.64-14.27-1.7-4.65-11.05,3.7-13.7-3.3,8.17,4.77,16.35-3.91,14.15-12.16,3.46,3.2.35,8.33.47,12.34Z"/>
      <path class="cls-1" d="m243.39,124.52c-4.58,3.14-10.09.83-14.17-2.14-2.64-1.01-5.37.49-8.04.66-4.68.42-1.26,5.2-.07,7.52-6.18-1.77-1.11-14.36-14.33-6.87-3.32.66,2.88-2.62,1.81-4.55-.12-1.07-.92-2.03-.92-3.15,5.41,4.14,9.65,6.36,16.71,4.54,4.09-.31,3.42-4.96,5.54-7.32-.83,5.44-.02,11.15,7.14,11.29,2.09.23,4.32-.6,6.33.02Z"/>
      <path class="cls-1" d="m265.75,106.96c.02.31.11.63.05.92-2.29,5.13.49,17.04-5,19.31,6.05-11.35-.38-17.05-9.61-7.23-5.47,3.2,2.95-3.17-1.25-4.1-5.95-3.59,8.03,3.68,15.81-8.9Z"/>
      <path class="cls-1" d="m130.54,86.79c-1.53,24.47-21.37,41.38-32.6,61.45-6.32,11.05,11.55,14.38,12.55,21.78-3.44,5.31,1.33,10.21,1.41,15.19-4.89,6.75,5.06,13.87,3.8,19.84-9.6,11.26-1.6,29.84,10.18,36.56,9.1,5.57,19.25,2.01,29.08,4.61,10.16,2.71,20.5,13.07,20.51,23.53-11.69,3.92-23.39,6.73-35.79,7.42,56.59,6.83,115.03-9.51,167.13-31.92,2.77-.49,2.3-2.64,2.24-4.71-.13-12.19,5.02-23.74,10.87-34.25,17.64-24.34,24.71-55.63,25.39-84.31,8.87-136.12-192.96-172.78-214.77-35.19Zm148.72,14.57c-1.06,3.84-5.67,4.76-7.57,7,10.86-2.07-5.19,17.16-6.77,20.53-4.2,6.45-7.17,13.62-9.06,21.07-1.56,5.66-.94,14.33-8.51,15.3-14.22,2.85-29.21,3.1-43.28-.65-6.08-1.9-5.45-9.31-7.03-14.32-1.75-8.59-6.51-16.13-10.65-23.74-1.8-4.36-7.61-9.83-6.77-14.47,1.37-2.87,4.26-1.81,6.42-.58-.23-2.78-3.05-3.06-5.19-3.45-14.41-3.07-7.6-22.31,5.86-13.09.77-4.91-.42-10.62,3.97-14.28,3.08-2.64,8.13-2.68,11.08-.79,4.26,2.78,2.39,8.6,2.77,12.88-.53,5.82,3.77,10.02,9.37,10.55,3.14,1.39,2.05,7.62,6.77,8.39-4.39-9.74-4.38-6.32,2.73-13.98,3.1-2.69,1.74-9.43,5.19-10.12,4.74.36,7.83-3.8,12.07-3.78,4.08.73,9.52-.04,11.5-4.15-2.65.97-4.5,2.78-7.45,2.9-8.33.08-8.85-9.71-3.12-14.05-9.5,2.07-.99,15.54-8.23,16.79-7.05.79-4.64,1.2-8.31-3.63,1.11,6.72.19,15.71-7.07,18.77-4.31,2.06-10.18.45-11.49-4.57-1.67-5.88,1.39-13.48-4.93-17.19-.51-.43-.49-.59,0-.83,5.75-2.08,5.93-8.39,10.33-10.8,1.49,3.06-1.27,6.28-.36,9.61.94,4.51,2.47,8.88,3.55,13.29,2.69-5.96-5.38-12.34-1.71-18.53,1.88-3.74,7.08-2.5,9.63-5.01-6.48,1.23-11.85.83-16-5.11,3.81,11.38-7.91,22.05-17.81,13.22.34,1.68,2.03,2.3,3.24,3.66-5.2,2.9-7.61,7.53-7.52,13.81-9.8.1-16.03-1.16-13.33-12.79,1.99,4.79,11.37,8.41,4.13,2.77-5.14-5.27-3.15-14.48,4.35-16.18.22,2.43-1.32,6.37-.05,7.87.41-7.19,4.51-13.21,12.35-12.65,3.82.35.29,5.53,2.9,7.13.15-3.35-.51-7.53,2.6-10.04,2.75-1.94,7.2-5.06,8.19.2-.21-12.43,10.58-7.51,15.01-12.94-2.32.6-4.67,1.08-7.02,1.58-2.42.56-7.36-3.2-4.3-5.43,14.24-12.57,33.07.21,12.88,12.71,4.91.13,8.91-4.63,9.88-9.28.86-2.24-.83-4.76.39-6.59,4.66-2.86,10.31,3.86,7,8.11-2.69,3.84-7.04,7.99-4.35,12.97,1.78,4.23-.65,7.65-2.39,11.26,1.92.11,3.12-3.04,3.47-4.82.69-5.16,6.04-5.78,10.35-6.43,2.56-.4,4.42,2.38,4.59,4.38,1.28,2.36-5.14,9.5-.9,6.1,9.58-7.02,15.52,9.5,6.57,14.69-3,2.13-6.35,4.19-10.23,3.17-13.82.02-10.5,10.41-17.09,15.11-1.5.97-3.75.68-5.05,1.79,3.01,1.05,7.6-2.35,9.72,1.25,2.6,3.85,8.6,4.37,5.43,9.99,1.39-.42,1.83-2.13,2.6-3.23,1.14-2.74,5.65-1.99,6.28-4.69-13.21,6.67-19.66-10.7-8.25-17.43,3.1-1.9,8.44-3.07,10.8.53.3.56.68.49,1.06.1,1.99-2.29,4.23-4.26,6.66-6.06,7.95-7.3,3.84-15.23-4.83-19.22-1.21-.8-1.51-2.17-1.88-3.43-3.11-10.61-14.66,2.4-16.27-6.27-.11-4.85,5.3-6.81,6.26-11.29-.08-7.08,9.95-5.38,11.39.3.86,2.32.47,4.6.16,6.94-1.32,5.38,4.35,10.82,9.33,7.29-3.41-.17-7.66-.73-7.82-4.95.49-2.73-1.44-9.82,3.28-8.72,3.92,1.15,2.96,6.64,6.88,7.2,8.85,1.48,9.91,16.33-.65,15.6,4.73,4.28,8.16-4.49,10.18-2.73,2.9,1.62,4.43,6.51,2.98,9.75-1.3-.18-2.65-.87-3.99-.53,4.44,2.8,6.23,5.39,5.71,10.86-.07,1.45-.83,2.07-2.16,1.6-3.49-1.3-7.06-2.44-10.01-4.69,1.02,11.83-6.82,17.44-17.62,18.37,8.74,4.39,18.21-12.33,16.04,4.22.23-.19.59-.33.69-.57,1.13-3.27,3.51-5.1,6.14-7.17-2.03-.3-6.25,2.64-6.09-1.11,1.14-2.57.75-9.24,3.91-9.68,7.68-.97,11.31,8.3,8.46,14.43Zm-41.78,70.5c-8.8,1.86-17.67,1.04-26.43.18.12.17.21.43.37.47,11.18,3.84,23.56,2.39,34.69-.91.69-.27,1.38-.83,1.98.19,2.29,4.64-9.31,5.68-12.24,6.4-8.09,1.43-16.12-.6-24.17-.62,2.16,1.99,7.19,2.09,10.38,2.8,5.81,1.03,11.67-.16,17.47-.98,2.76-.14,5.72-2.66,8.31-1.95,3.25,4.83-12.01,5.56-14.87,6.73-6.92.3-14.03-.35-20.88-.01,10.93,5.13,23.85,1.2,35.01-1.13,3.05,4.63-6.49,4.26-9.05,5.7-8.38,2.64-17.26,1.11-25.64.7,10.87,4.83,23.81,2.97,34.95-.57-6.77,8.85-27.64,7.3-37.32,4.05-3.13-1.11-4.44-2.22-4.45-5.96.08-3.03-.68-6.12-.48-9.14.81-1.84-.51-3.42-.73-5.07,1.6-2.23-.26-4.19-.69-6.49,9.34,1.99,18.55,2.98,28.05,2.52,5.7.05,11.67-2.1,17.19-1.83.94,3.23-9.12,4.04-11.45,4.92Zm-25.65,22.98c8.65,2.87,18.05,3.51,26.9,1.17-5.83,3.79-21.36,3.21-26.9-1.17Zm-12.14-145.51c-.94-2.14-6.46.98-8.71.97,4.16-10.73,22.4-8.36,16.26-.61-1.3,1.59-3.06,2.7-4.83,3.78-3.46,1.93-6.2,5.55-10.47,5.6-3.92-1.3-11.7,7.8-12.87,2.21,2.54-8.11,13.87-8.68,20.62-11.95Z"/>
      <g>
        <path class="cls-1" d="m577.4,192.96v-109.57h-38.04v136.98h61.18v-27.41h-23.14Z"/>
        <path class="cls-1" d="m691.37,166.22v-14.89c0-10.89-1.34-19.33-4.02-25.34-2.69-6.01-7.36-10.83-14.01-14.47-6.66-3.64-15.11-5.46-25.35-5.46-8.38,0-15.79,1.51-22.23,4.53-6.45,3.02-11.09,7.36-13.92,13.03s-4.25,13.41-4.25,23.22v32.75c0,8.35.63,14.71,1.9,19.08,1.26,4.37,3.54,8.37,6.82,12.01,3.28,3.64,7.88,6.5,13.78,8.59,5.91,2.08,12.72,3.13,20.43,3.13s14.56-1.06,19.84-3.17c5.27-2.12,9.62-5.29,13.05-9.52,3.44-4.23,5.62-8.21,6.56-11.93.93-3.72,1.4-9.06,1.4-15.99v-8.29h-34.62v14.8c0,5.59-.46,9.35-1.4,11.3-.93,1.94-2.78,2.92-5.56,2.92-2.22,0-3.73-.74-4.51-2.2-.79-1.47-1.18-4.74-1.18-9.82v-24.28h47.27Zm-47.27-26.48c0-6.32.3-10.2.91-11.64.6-1.43,2.16-2.15,4.69-2.15,2.05,0,3.41.84,4.07,2.54.66,1.69,1,5.44,1,11.25v8.2h-10.67v-8.2Z"/>
        <path class="cls-1" d="m784.14,129.75c-1.18-3.89-3.36-7.67-6.56-11.33-3.19-3.67-7.72-6.64-13.6-8.93-5.87-2.28-12.91-3.43-21.1-3.43-9.76,0-17.77,1.78-24.04,5.33-6.27,3.56-10.6,8.27-13.01,14.13-2.41,5.87-3.62,14.02-3.62,24.46v28.76c0,9.53.66,16.68,1.99,21.45,1.32,4.77,3.54,8.83,6.64,12.18,3.1,3.36,7.46,5.87,13.06,7.53,5.61,1.67,12.44,2.5,20.52,2.5,7.23,0,13.63-.97,19.2-2.92,5.57-1.95,10.14-4.96,13.69-9.05,3.56-4.09,5.88-8.49,6.96-13.2,1.09-4.71,1.63-12.11,1.63-22.21v-27.5c0-7.95-.59-13.87-1.76-17.77Zm-34.75,61.09c0,4.85-.35,8.01-1.04,9.48-.7,1.46-2.13,2.2-4.3,2.2s-3.52-.81-4.24-2.41c-.73-1.61-1.09-5.07-1.09-10.37v-50.68c0-5.75.36-9.38,1.09-10.87.72-1.49,2.17-2.24,4.34-2.24s3.58.75,4.24,2.24c.67,1.49,1,5.12,1,10.87v51.78Z"/>
        <path class="cls-1" d="m794.66,83.39v26.82h6.15c-.48,3.22-2.53,5.75-6.15,7.61v9.9c5.07-1.01,9.6-2.94,13.61-5.79,4-2.85,6.82-6.35,8.45-10.49,1.62-4.15,2.44-9.41,2.44-15.78v-12.27h-24.5Z"/>
        <path class="cls-1" d="m901.4,168.5c-3.32-4.28-10.28-8.85-20.88-13.7-7.95-3.67-13.21-6.46-15.77-8.38-2.56-1.92-4.1-3.68-4.61-5.29-.51-1.6-.77-4.13-.77-7.57,0-2.54.51-4.44,1.54-5.71,1.02-1.27,2.56-1.9,4.61-1.9,2.53,0,4.11.69,4.74,2.07.63,1.38.95,4.67.95,9.86v6.09h32.35v-6.52c0-5.64-.31-9.78-.94-12.43-.64-2.65-2.44-5.53-5.43-8.63-2.98-3.11-7.26-5.6-12.83-7.49-5.57-1.89-12.34-2.84-20.29-2.84s-15.05,1.16-21.1,3.47c-6.06,2.32-10.35,5.6-12.88,9.86-2.53,4.26-3.8,10.87-3.8,19.84,0,6.32,1.18,11.78,3.53,16.37,2.35,4.6,8.89,9.72,19.61,15.36,12.77,6.65,19.85,10.66,21.24,12.01,1.32,1.36,1.99,4.71,1.99,10.07,0,3.89-.52,6.44-1.54,7.66-1.02,1.21-2.83,1.82-5.42,1.82-2.41,0-4.02-.91-4.84-2.71-.81-1.81-1.22-5.73-1.22-11.76v-7.11h-32.35v5.42c0,9.36,1.23,16.35,3.7,20.98,2.47,4.62,7.01,8.29,13.61,11,6.59,2.71,14.53,4.06,23.81,4.06,8.37,0,15.53-1.26,21.46-3.77,5.94-2.51,10.17-6.09,12.7-10.74,2.53-4.65,3.8-11.55,3.8-20.69,0-8.18-1.66-14.41-4.97-18.7Z"/>
      </g>
      <g>
        <path class="cls-1" d="m537.67,262.94v10.61h9.72v42.39h16.42v-42.39h9.75v-10.61h-35.89Z"/>
        <path class="cls-1" d="m609.18,294.99v-5.76c0-4.21-.58-7.48-1.73-9.81-1.16-2.32-3.18-4.19-6.05-5.59-2.87-1.41-6.52-2.11-10.94-2.11-3.62,0-6.82.58-9.6,1.75-2.78,1.16-4.79,2.84-6.01,5.04-1.22,2.19-1.83,5.19-1.83,8.98v12.67c0,3.23.27,5.69.82,7.38.54,1.69,1.53,3.24,2.94,4.65,1.42,1.41,3.4,2.51,5.95,3.32s5.49,1.21,8.82,1.21,6.29-.41,8.56-1.22c2.28-.82,4.16-2.05,5.64-3.69,1.48-1.63,2.42-3.17,2.83-4.61.4-1.44.6-3.5.6-6.19v-3.21h-14.94v5.73c0,2.16-.2,3.62-.6,4.37-.41.75-1.21,1.13-2.4,1.13-.97,0-1.62-.28-1.95-.85-.34-.57-.51-1.83-.51-3.8v-9.39h20.4Zm-20.4-10.25c0-2.44.13-3.94.39-4.5.26-.55.94-.83,2.03-.83.88,0,1.47.33,1.75.98.29.65.43,2.11.43,4.35v3.18h-4.6v-3.18Z"/>
        <path class="cls-1" d="m635.12,303.24c0,2.24-.18,3.77-.56,4.58-.38.81-1.1,1.21-2.17,1.21-.91,0-1.6-.39-2.06-1.16-.47-.78-.71-1.94-.71-3.49v-20.49c0-1.9.16-3.12.47-3.66.31-.55.93-.82,1.84-.82s1.53.31,1.87.93c.34.62.51,1.81.51,3.55v5.01h14.86c0-4.08-.48-7.23-1.44-9.46-.97-2.23-2.9-4.07-5.82-5.53-2.91-1.46-6.42-2.19-10.53-2.19s-7.65.73-10.53,2.21c-2.89,1.47-4.78,3.14-5.66,5.02-.88,1.88-1.33,4.66-1.33,8.35v12.34c0,4.23.54,7.5,1.62,9.8s2.92,4.09,5.52,5.37c2.6,1.27,6.13,1.91,10.58,1.91,3.48,0,6.41-.46,8.77-1.39,2.37-.93,4.29-2.3,5.76-4.12,1.47-1.82,2.34-3.6,2.61-5.34.27-1.73.42-4.33.45-7.8h-14.05v5.17Z"/>
        <path class="cls-1" d="m689.64,277.56c-.42-1.54-1.61-2.9-3.55-4.08-1.93-1.18-4.28-1.76-7.04-1.76-1.79,0-3.48.26-5.05.78-1.57.53-3.04,1.32-4.39,2.37v-11.93h-15.76v53h15.76v-31c0-2.2.17-3.68.51-4.42.34-.74.99-1.11,1.95-1.11,1.04,0,1.71.36,2.01,1.08.3.72.45,2.34.45,4.88v30.57h15.76v-29.95c0-4.08-.22-6.89-.65-8.43Z"/>
        <path class="cls-1" d="m743.58,291.09c-1.9-2.33-6.51-5.32-13.82-8.96-2.55-1.26-4.09-2.34-4.64-3.24-.57-.9-.85-2.23-.85-4,0-1.37.25-2.4.76-3.07.5-.68,1.25-1.02,2.24-1.02.91,0,1.56.25,1.95.75s.59,1.67.59,3.5v3.93h15.25v-2.09c0-4.21-.49-7.2-1.46-8.95-.98-1.76-2.97-3.22-5.97-4.37-3.01-1.16-6.64-1.74-10.91-1.74-3.9,0-7.23.53-9.98,1.59-2.76,1.06-4.76,2.52-5.99,4.4-1.24,1.88-1.85,4.84-1.85,8.9,0,2.82.43,5.13,1.3,6.94s1.97,3.23,3.3,4.26c1.33,1.02,4.03,2.67,8.11,4.94,4.09,2.25,6.65,3.85,7.69,4.81,1.01.96,1.52,3,1.52,6.12,0,1.42-.27,2.49-.8,3.21-.53.72-1.35,1.08-2.44,1.08s-1.85-.28-2.28-.85-.64-1.84-.64-3.83v-6.45h-15.26v3.47c0,3.97.48,7.04,1.45,9.2.96,2.16,2.99,3.94,6.1,5.34,3.11,1.39,6.86,2.09,11.26,2.09,4,0,7.51-.61,10.53-1.82,3.02-1.21,5.05-2.71,6.11-4.5,1.05-1.79,1.58-4.57,1.58-8.34,0-5.2-.95-8.96-2.85-11.3Z"/>
        <path class="cls-1" d="m786.72,277.18c-.44-1.44-1.55-2.71-3.33-3.81-1.78-1.1-3.9-1.65-6.34-1.65-2,0-3.85.38-5.54,1.14-1.69.77-3.24,1.93-4.64,3.48l.27-3.84h-16.03v49.62h15.76v-9.96c1.38,1.51,2.9,2.65,4.56,3.42,1.67.76,3.47,1.14,5.42,1.14,2.45,0,4.54-.49,6.26-1.49,1.73-.99,2.88-2.32,3.44-3.99s.84-4.48.84-8.43v-18.3c0-3.44-.22-5.89-.67-7.33Zm-15.09,26.58c0,2.31-.13,3.77-.37,4.37-.25.6-.88.9-1.9.9s-1.71-.33-2.03-.98c-.31-.66-.46-2.29-.46-4.91v-18c0-2.51.15-4.1.45-4.75.29-.65.96-.98,2-.98s1.72.28,1.96.85c.23.57.35,2.19.35,4.88v18.62Z"/>
        <path class="cls-1" d="m826.59,279.92c-.54-2.31-2.17-4.25-4.87-5.83-2.71-1.58-6.73-2.37-12.06-2.37-4.44,0-8.06.69-10.84,2.09-2.79,1.4-4.64,3.01-5.56,4.83-.93,1.82-1.39,4.41-1.39,7.77v2.92h14.79v-4.55c0-2.43.13-3.93.39-4.5.26-.58.92-.87,1.99-.87.93,0,1.6.34,2.01,1.03.4.69.6,2.17.6,4.43,0,1.82-.18,3.02-.54,3.6-.37.59-3.14,1.74-8.31,3.44-4.84,1.57-7.87,2.95-9.09,4.13-1.23,1.17-1.84,3.39-1.84,6.64v3.57c0,4.38,1.15,7.23,3.46,8.53,2.3,1.29,4.83,1.94,7.58,1.94,2.11,0,3.92-.39,5.45-1.16,1.52-.78,2.76-1.94,3.72-3.49v3.87h15.33v-21.8c0-7.18-.27-11.92-.82-14.22Zm-14.94,24.3c0,2.18-.15,3.53-.45,4.04-.3.51-.94.77-1.93.77-1.04,0-1.73-.33-2.08-.98-.36-.66-.53-2.11-.53-4.35,0-1.97.2-3.47.6-4.52.41-1.05,1.87-2.35,4.39-3.9v8.94Z"/>
        <path class="cls-1" d="m853.63,303.24c0,2.24-.19,3.77-.57,4.58-.37.81-1.1,1.21-2.16,1.21-.91,0-1.6-.39-2.07-1.16-.47-.78-.7-1.94-.7-3.49v-20.49c0-1.9.15-3.12.47-3.66.31-.55.92-.82,1.83-.82s1.53.31,1.87.93c.34.62.51,1.81.51,3.55v5.01h14.86c0-4.08-.48-7.23-1.44-9.46-.96-2.23-2.9-4.07-5.81-5.53-2.92-1.46-6.43-2.19-10.54-2.19s-7.64.73-10.53,2.21c-2.89,1.47-4.77,3.14-5.66,5.02-.88,1.88-1.32,4.66-1.32,8.35v12.34c0,4.23.54,7.5,1.62,9.8,1.08,2.3,2.92,4.09,5.52,5.37,2.6,1.27,6.12,1.91,10.57,1.91,3.48,0,6.41-.46,8.78-1.39,2.36-.93,4.28-2.3,5.75-4.12,1.47-1.82,2.34-3.6,2.62-5.34.27-1.73.42-4.33.44-7.8h-14.04v5.17Z"/>
        <path class="cls-1" d="m908.05,294.99v-5.76c0-4.21-.58-7.48-1.74-9.81-1.15-2.32-3.17-4.19-6.04-5.59-2.88-1.41-6.52-2.11-10.95-2.11-3.61,0-6.81.58-9.59,1.75-2.79,1.16-4.79,2.84-6.01,5.04-1.22,2.19-1.83,5.19-1.83,8.98v12.67c0,3.23.27,5.69.82,7.38.54,1.69,1.52,3.24,2.94,4.65,1.42,1.41,3.4,2.51,5.95,3.32s5.49,1.21,8.82,1.21,6.28-.41,8.56-1.22c2.28-.82,4.16-2.05,5.64-3.69,1.48-1.63,2.42-3.17,2.83-4.61.4-1.44.6-3.5.6-6.19v-3.21h-14.94v5.73c0,2.16-.2,3.62-.61,4.37-.4.75-1.2,1.13-2.39,1.13-.97,0-1.62-.28-1.96-.85-.33-.57-.5-1.83-.5-3.8v-9.39h20.4Zm-20.4-10.25c0-2.44.13-3.94.39-4.5.26-.55.93-.83,2.03-.83.88,0,1.46.33,1.75.98.29.65.43,2.11.43,4.35v3.18h-4.6v-3.18Z"/>
      </g>
      <g>
        <path class="cls-1" d="m284.47,82.09c-.13-.09-.35-.16-.39-.29-2.37-6.18-.89-13.81-6-18.77-3.6-3.72-3.07-10.28-8.39-12.35-2.26-.62-3.47-2.8-4.98-4.44-4-3.48-9-5.82-13.67-8.27-6.33-2.14-12.96-3.69-19.66-3.92-4.84-.79-9.64-1.55-14.49-.32-4.91.44-8.87,3.44-13.28,5.21-2.63.38-5.48.3-7.96,1.31-7.35,3.14-11.78,10.22-18.04,14.95-2.93,2.35-2.69,5.93-3.85,9.09-1.15,1.73-2.94,3.21-3.78,5.1-1.38,2.92-.99,6.15-1.76,9.24-.93,3.03-1.21,6.1-.57,9.22.23,3.19,3.29,5.71,1.87,9.02-1.84,5.36,1.98,9.81,4.76,13.98,4.15,11.36,12.49,20.53,17.02,31.8,2.31,6.26,3.85,12.76,5.01,19.31.4,3.95,5.5,4.68,4.78,9.02.15,4.8.84,9.59.83,14.46-.13,4.79,2.11,8.61,6.44,10.72,3.47,2.55,6.62,5.26,9.68,8.27,5.03,3.12,12.7,3.16,17.46-.41,3.83-5.13,10.87-6.57,14-12.42,2.65-7.25,1.64-15.41,2.61-23.02.89-2.36,4.03-3.34,4.46-6.12,2.08-16.52,9.74-30.9,19.26-44.34,2.76-5.64,5.54-11.49,7.76-17.32.34-3.86.36-7.76.44-11.63.82-.38.29-6.39.44-7.08Zm-84.78-32.76c-.94-2.14-6.46.98-8.71.97,4.16-10.73,22.4-8.36,16.26-.61-1.3,1.59-3.06,2.7-4.83,3.78-3.46,1.93-6.2,5.55-10.47,5.6-3.92-1.3-11.7,7.8-12.87,2.21,2.54-8.11,13.87-8.68,20.62-11.95Zm31.42,152.82c-.71.42-1.53.73-2.39.92-.09.02-.19.04-.28.05-1.35.28-2.8.26-4.17-.02-.02,0-.05-.01-.07-.01-.01,0-.03,0-.04,0-.97-.2-1.88-.54-2.68-1h9.7s-.04.05-.07.07Zm-19.28-7.31c8.65,2.87,18.05,3.51,26.9,1.17-5.83,3.79-21.36,3.21-26.9-1.17Zm25.65-22.98c-8.8,1.86-17.67,1.04-26.43.18.12.17.21.43.37.47,11.18,3.84,23.56,2.39,34.69-.91.69-.27,1.38-.83,1.98.19,2.29,4.64-9.31,5.68-12.24,6.4-8.09,1.43-16.12-.6-24.17-.62,2.16,1.99,7.19,2.09,10.38,2.8,5.81,1.03,11.67-.16,17.47-.98,2.76-.14,5.72-2.66,8.31-1.95,3.25,4.83-12.01,5.56-14.87,6.73-6.92.3-14.03-.35-20.88-.01,10.93,5.13,23.85,1.2,35.01-1.13,3.05,4.63-6.49,4.26-9.05,5.7-8.38,2.64-17.26,1.11-25.64.7,10.87,4.83,23.81,2.97,34.95-.57-6.77,8.85-27.64,7.3-37.32,4.05-3.13-1.11-4.44-2.22-4.45-5.96.08-3.03-.68-6.12-.48-9.14.81-1.84-.51-3.42-.73-5.07,1.6-2.23-.26-4.19-.69-6.49,9.34,1.99,18.55,2.98,28.05,2.52,5.7.05,11.67-2.1,17.19-1.83.94,3.23-9.12,4.04-11.45,4.92Zm41.78-70.5c-1.06,3.84-5.67,4.76-7.57,7,10.86-2.07-5.19,17.16-6.77,20.53-4.2,6.45-7.17,13.62-9.06,21.07-1.56,5.66-.94,14.33-8.51,15.3-14.22,2.85-29.21,3.1-43.28-.65-6.08-1.9-5.45-9.31-7.03-14.32-1.75-8.59-6.51-16.13-10.65-23.74-1.8-4.36-7.61-9.83-6.77-14.47,1.37-2.87,4.26-1.81,6.42-.58-.23-2.78-3.05-3.06-5.19-3.45-14.41-3.07-7.6-22.31,5.86-13.09.77-4.91-.42-10.62,3.97-14.28,3.08-2.64,8.13-2.68,11.08-.79,4.26,2.78,2.39,8.6,2.77,12.88-.53,5.82,3.77,10.02,9.37,10.55,3.14,1.39,2.05,7.62,6.77,8.39-4.39-9.74-4.38-6.32,2.73-13.98,3.1-2.69,1.74-9.43,5.19-10.12,4.74.36,7.83-3.8,12.07-3.78,4.08.73,9.52-.04,11.5-4.15-2.65.97-4.5,2.78-7.45,2.9-8.33.08-8.85-9.71-3.12-14.05-9.5,2.07-.99,15.54-8.23,16.79-7.05.79-4.64,1.2-8.31-3.63,1.11,6.72.19,15.71-7.07,18.77-4.31,2.06-10.18.45-11.49-4.57-1.67-5.88,1.39-13.48-4.93-17.19-.51-.43-.49-.59,0-.83,5.75-2.08,5.93-8.39,10.33-10.8,1.49,3.06-1.27,6.28-.36,9.61.94,4.51,2.47,8.88,3.55,13.29,2.69-5.96-5.38-12.34-1.71-18.53,1.88-3.74,7.08-2.5,9.63-5.01-6.48,1.23-11.85.83-16-5.11,3.81,11.38-7.91,22.05-17.81,13.22.34,1.68,2.03,2.3,3.24,3.66-5.2,2.9-7.61,7.53-7.52,13.81-9.8.1-16.03-1.16-13.33-12.79,1.99,4.79,11.37,8.41,4.13,2.77-5.14-5.27-3.15-14.48,4.35-16.18.22,2.43-1.32,6.37-.05,7.87.41-7.19,4.51-13.21,12.35-12.65,3.82.35.29,5.53,2.9,7.13.15-3.35-.51-7.53,2.6-10.04,2.75-1.94,7.2-5.06,8.19.2-.21-12.43,10.58-7.51,15.01-12.94-2.32.6-4.67,1.08-7.02,1.58-2.42.56-7.36-3.2-4.3-5.43,14.24-12.57,33.07.21,12.88,12.71,4.91.13,8.91-4.63,9.88-9.28.86-2.24-.83-4.76.39-6.59,4.66-2.86,10.31,3.86,7,8.11-2.69,3.84-7.04,7.99-4.35,12.97,1.78,4.23-.65,7.65-2.39,11.26,1.92.11,3.12-3.04,3.47-4.82.69-5.16,6.04-5.78,10.35-6.43,2.56-.4,4.42,2.38,4.59,4.38,1.28,2.36-5.14,9.5-.9,6.1,9.58-7.02,15.52,9.5,6.57,14.69-3,2.13-6.35,4.19-10.23,3.17-13.82.02-10.5,10.41-17.09,15.11-1.5.97-3.75.68-5.05,1.79,3.01,1.05,7.6-2.35,9.72,1.25,2.6,3.85,8.6,4.37,5.43,9.99,1.39-.42,1.83-2.13,2.6-3.23,1.14-2.74,5.65-1.99,6.28-4.69-13.21,6.67-19.66-10.7-8.25-17.43,3.1-1.9,8.44-3.07,10.8.53.3.56.68.49,1.06.1,1.99-2.29,4.23-4.26,6.66-6.06,7.95-7.3,3.84-15.23-4.83-19.22-1.21-.8-1.51-2.17-1.88-3.43-3.11-10.61-14.66,2.4-16.27-6.27-.11-4.85,5.3-6.81,6.26-11.29-.08-7.08,9.95-5.38,11.39.3.86,2.32.47,4.6.16,6.94-1.32,5.38,4.35,10.82,9.33,7.29-3.41-.17-7.66-.73-7.82-4.95.49-2.73-1.44-9.82,3.28-8.72,3.92,1.15,2.96,6.64,6.88,7.2,8.85,1.48,9.91,16.33-.65,15.6,4.73,4.28,8.16-4.49,10.18-2.73,2.9,1.62,4.43,6.51,2.98,9.75-1.3-.18-2.65-.87-3.99-.53,4.44,2.8,6.23,5.39,5.71,10.86-.07,1.45-.83,2.07-2.16,1.6-3.49-1.3-7.06-2.44-10.01-4.69,1.02,11.83-6.82,17.44-17.62,18.37,8.74,4.39,18.21-12.33,16.04,4.22.23-.19.59-.33.69-.57,1.13-3.27,3.51-5.1,6.14-7.17-2.03-.3-6.25,2.64-6.09-1.11,1.14-2.57.75-9.24,3.91-9.68,7.68-.97,11.31,8.3,8.46,14.43Z"/>
        <path class="cls-1" d="m222.52,202.66c.18.07.38.13.58.19-.2-.06-.4-.12-.58-.19Z"/>
        <path class="cls-1" d="m223.67,202.99c.2.04.4.08.6.11-.21-.03-.41-.07-.6-.11Z"/>
        <path class="cls-1" d="m227.92,203.19c-.95.1-1.99.1-2.97,0,.98.1,2.02.09,2.97,0Z"/>
        <path class="cls-1" d="m227.94,203.18c.33-.03.66-.08.97-.14-.31.06-.63.1-.97.14Z"/>
        <path class="cls-1" d="m230.33,202.65c.12-.05.24-.11.35-.17-.11.06-.22.11-.35.17Z"/>
        <path class="cls-1" d="m196.28,127.51c-.58.44-.82-.13-1.12-.55-2-2.61-1.04-7.13-5.55-6.97,5.24-2.75,8.7-8.35,6.64-14.27-1.7-4.65-11.05,3.7-13.7-3.3,8.17,4.77,16.35-3.91,14.15-12.16,3.46,3.2.35,8.33.47,12.34,2.53,5.36,2.17,9.27-.94,14.36-1.99,3.95-.77,6.75.05,10.55Z"/>
        <path class="cls-1" d="m243.39,124.52c-4.58,3.14-10.09.83-14.17-2.14-2.64-1.01-5.37.49-8.04.66-4.68.42-1.26,5.2-.07,7.52-6.18-1.77-1.11-14.36-14.33-6.87-3.32.66,2.88-2.62,1.81-4.55-.12-1.07-.92-2.03-.92-3.15,5.41,4.14,9.65,6.36,16.71,4.54,4.09-.31,3.42-4.96,5.54-7.32-.83,5.44-.02,11.15,7.14,11.29,2.09.23,4.32-.6,6.33.02Z"/>
        <path class="cls-1" d="m265.8,107.88c-2.29,5.13.49,17.04-5,19.31,6.05-11.35-.38-17.05-9.61-7.23-5.47,3.2,2.95-3.17-1.25-4.1-5.95-3.59,8.03,3.68,15.81-8.9.02.31.11.63.05.92Z"/>
      </g>
    </g>
  </g>
</svg>